<svg xmlns="http://www.w3.org/2000/svg" viewBox="0 0 1028 536" width="1028" height="536" style="--bg:#1a1b26;--fg:#a9b1d6;--line:#3d59a1;--accent:#7aa2f7;--muted:#565f89;background:var(--bg)">
<style>
  @import url('https://fonts.googleapis.com/css2?family=Inter:wght@400;500;600;700&amp;display=swap');
  text { font-family: 'Inter', system-ui, sans-serif; }
  svg {
    /* Derived from --bg and --fg (overridable via --line, --accent, etc.) */
    --_text:          var(--fg);
    --_text-sec:      var(--muted, color-mix(in srgb, var(--fg) 60%, var(--bg)));
    --_text-muted:    var(--muted, color-mix(in srgb, var(--fg) 40%, var(--bg)));
    --_text-faint:    color-mix(in srgb, var(--fg) 25%, var(--bg));
    --_line:          var(--line, color-mix(in srgb, var(--fg) 30%, var(--bg)));
    --_arrow:         var(--accent, color-mix(in srgb, var(--fg) 50%, var(--bg)));
    --_node-fill:     var(--surface, color-mix(in srgb, var(--fg) 3%, var(--bg)));
    --_node-stroke:   var(--border, color-mix(in srgb, var(--fg) 20%, var(--bg)));
    --_group-fill:    var(--bg);
    --_group-hdr:     color-mix(in srgb, var(--fg) 5%, var(--bg));
    --_inner-stroke:  color-mix(in srgb, var(--fg) 12%, var(--bg));
    --_key-badge:     color-mix(in srgb, var(--fg) 10%, var(--bg));
  }
</style>
<defs>
  <marker id="arrowhead" markerWidth="8" markerHeight="4.8" refX="8" refY="2.4" orient="auto">
    <polygon points="0 0, 8 2.4, 0 4.8" fill="var(--_arrow)" />
  </marker>
  <marker id="arrowhead-start" markerWidth="8" markerHeight="4.8" refX="0" refY="2.4" orient="auto-start-reverse">
    <polygon points="8 0, 0 2.4, 8 4.8" fill="var(--_arrow)" />
  </marker>
</defs>
<rect x="40" y="40" width="948" height="236" rx="0" ry="0" fill="var(--_group-fill)" stroke="var(--_node-stroke)" stroke-width="1" />
<rect x="40" y="40" width="948" height="28" rx="0" ry="0" fill="var(--_group-hdr)" stroke="var(--_node-stroke)" stroke-width="1" />
<text x="52" y="54" dy="0.35em" font-size="12" font-weight="600" fill="var(--_text-sec)">Without Caching</text>
<rect x="40" y="260" width="948" height="236" rx="0" ry="0" fill="var(--_group-fill)" stroke="var(--_node-stroke)" stroke-width="1" />
<rect x="40" y="260" width="948" height="28" rx="0" ry="0" fill="var(--_group-hdr)" stroke="var(--_node-stroke)" stroke-width="1" />
<text x="52" y="274" dy="0.35em" font-size="12" font-weight="600" fill="var(--_text-sec)">With Caching</text>
<polyline points="245.72500000000002,116 478.25,116 478.25,158" fill="none" stroke="var(--_line)" stroke-width="0.75" marker-end="url(#arrowhead)" />
<polyline points="217.125,176 422.925,176" fill="none" stroke="var(--_line)" stroke-width="0.75" marker-end="url(#arrowhead)" />
<polyline points="227.85000000000002,236 478.25,236 478.25,194" fill="none" stroke="var(--_line)" stroke-width="0.75" marker-end="url(#arrowhead)" />
<polyline points="533.575,176 707.2,176" fill="none" stroke="var(--_line)" stroke-width="0.75" marker-end="url(#arrowhead)" />
<polyline points="285.05,336 478.25,336 478.25,378" fill="none" stroke="var(--_line)" stroke-width="0.75" marker-end="url(#arrowhead)" />
<polyline points="256.45000000000005,396 405.05,396" fill="none" stroke="var(--_line)" stroke-width="0.75" marker-end="url(#arrowhead)" />
<polyline points="238.57500000000002,456 478.25,456 478.25,414" fill="none" stroke="var(--_line)" stroke-width="0.75" marker-end="url(#arrowhead)" />
<polyline points="551.45,396 671.45,396" fill="none" stroke="var(--_line)" stroke-width="0.75" marker-end="url(#arrowhead)" />
<rect x="99.325" y="98" width="146.4" height="36" rx="0" ry="0" fill="var(--_node-fill)" stroke="var(--_node-stroke)" stroke-width="0.75" />
<rect x="422.925" y="158" width="110.65" height="36" rx="0" ry="0" fill="#ef4444" stroke="var(--_node-stroke)" stroke-width="0.75" />
<rect x="127.92500000000001" y="158" width="89.2" height="36" rx="0" ry="0" fill="var(--_node-fill)" stroke="var(--_node-stroke)" stroke-width="0.75" />
<rect x="117.2" y="218" width="110.65" height="36" rx="0" ry="0" fill="var(--_node-fill)" stroke="var(--_node-stroke)" stroke-width="0.75" />
<rect x="707.2" y="158" width="225.05" height="36" rx="0" ry="0" fill="var(--_node-fill)" stroke="var(--_node-stroke)" stroke-width="0.75" />
<rect x="60" y="318" width="225.05" height="36" rx="0" ry="0" fill="var(--_node-fill)" stroke="var(--_node-stroke)" stroke-width="0.75" />
<rect x="405.05" y="378" width="146.4" height="36" rx="0" ry="0" fill="#10b981" stroke="var(--_node-stroke)" stroke-width="0.75" />
<rect x="88.6" y="378" width="167.85000000000002" height="36" rx="0" ry="0" fill="var(--_node-fill)" stroke="var(--_node-stroke)" stroke-width="0.75" />
<rect x="106.475" y="438" width="132.10000000000002" height="36" rx="0" ry="0" fill="var(--_node-fill)" stroke="var(--_node-stroke)" stroke-width="0.75" />
<rect x="671.45" y="378" width="296.55" height="36" rx="0" ry="0" fill="var(--_node-fill)" stroke="var(--_node-stroke)" stroke-width="0.75" />
<text x="172.525" y="116" text-anchor="middle" dy="0.35em" font-size="13" font-weight="500" fill="var(--_text)">System Prompt 5K</text>
<text x="478.25" y="176" text-anchor="middle" dy="0.35em" font-size="13" font-weight="500" fill="#fff">Process all</text>
<text x="172.525" y="176" text-anchor="middle" dy="0.35em" font-size="13" font-weight="500" fill="var(--_text)">Tools 3K</text>
<text x="172.525" y="236" text-anchor="middle" dy="0.35em" font-size="13" font-weight="500" fill="var(--_text)">History 20K</text>
<text x="819.725" y="176" text-anchor="middle" dy="0.35em" font-size="13" font-weight="500" fill="var(--_text)">28K input tokens every call</text>
<text x="172.525" y="336" text-anchor="middle" dy="0.35em" font-size="13" font-weight="500" fill="var(--_text)">&quot;System Prompt 5K ✅ cached&quot;</text>
<text x="478.25" y="396" text-anchor="middle" dy="0.35em" font-size="13" font-weight="500" fill="#fff">Process only new</text>
<text x="172.525" y="396" text-anchor="middle" dy="0.35em" font-size="13" font-weight="500" fill="var(--_text)">&quot;Tools 3K ✅ cached&quot;</text>
<text x="172.525" y="456" text-anchor="middle" dy="0.35em" font-size="13" font-weight="500" fill="var(--_text)">New message 1K</text>
<text x="819.725" y="396" text-anchor="middle" dy="0.35em" font-size="13" font-weight="500" fill="var(--_text)">&quot;1K fresh + 8K cached = much cheaper&quot;</text>
</svg>