<svg xmlns="http://www.w3.org/2000/svg" viewBox="0 0 850.0174999999999 436.4" width="850.0174999999999" height="436.4" style="--bg:#1a1b26;--fg:#a9b1d6;--line:#3d59a1;--accent:#7aa2f7;--muted:#565f89;background:var(--bg)">
<style>
  @import url('https://fonts.googleapis.com/css2?family=Inter:wght@400;500;600;700&amp;display=swap');
  text { font-family: 'Inter', system-ui, sans-serif; }
  svg {
    /* Derived from --bg and --fg (overridable via --line, --accent, etc.) */
    --_text:          var(--fg);
    --_text-sec:      var(--muted, color-mix(in srgb, var(--fg) 60%, var(--bg)));
    --_text-muted:    var(--muted, color-mix(in srgb, var(--fg) 40%, var(--bg)));
    --_text-faint:    color-mix(in srgb, var(--fg) 25%, var(--bg));
    --_line:          var(--line, color-mix(in srgb, var(--fg) 30%, var(--bg)));
    --_arrow:         var(--accent, color-mix(in srgb, var(--fg) 50%, var(--bg)));
    --_node-fill:     var(--surface, color-mix(in srgb, var(--fg) 3%, var(--bg)));
    --_node-stroke:   var(--border, color-mix(in srgb, var(--fg) 20%, var(--bg)));
    --_group-fill:    var(--bg);
    --_group-hdr:     color-mix(in srgb, var(--fg) 5%, var(--bg));
    --_inner-stroke:  color-mix(in srgb, var(--fg) 12%, var(--bg));
    --_key-badge:     color-mix(in srgb, var(--fg) 10%, var(--bg));
  }
</style>
<defs>
  <marker id="arrowhead" markerWidth="8" markerHeight="4.8" refX="8" refY="2.4" orient="auto">
    <polygon points="0 0, 8 2.4, 0 4.8" fill="var(--_arrow)" />
  </marker>
  <marker id="arrowhead-start" markerWidth="8" markerHeight="4.8" refX="0" refY="2.4" orient="auto-start-reverse">
    <polygon points="8 0, 0 2.4, 8 4.8" fill="var(--_arrow)" />
  </marker>
</defs>
<polyline points="329.73499999999996,76 329.73499999999996,104.5 138.90999999999997,104.5 138.90999999999997,133" fill="none" stroke="var(--_line)" stroke-width="0.75" marker-end="url(#arrowhead)" />
<polyline points="329.73499999999996,76 329.73499999999996,136.575" fill="none" stroke="var(--_line)" stroke-width="0.75" marker-end="url(#arrowhead)" />
<polyline points="329.73499999999996,76 329.73499999999996,104.5 546.0975,104.5 546.0975,133" fill="none" stroke="var(--_line)" stroke-width="0.75" marker-end="url(#arrowhead)" />
<polyline points="103.56456229735984,268.0545622973599 103.56456229735984,331.9 58.299999999999955,331.9 58.299999999999955,378.4 65.70999999999997,378.4" fill="none" stroke="var(--_line)" stroke-width="0.75" marker-end="url(#arrowhead)" />
<polyline points="283.4178722857876,253.50787228578764 283.4178722857876,331.9 180.58249999999998,331.9 180.58249999999998,378.4 212.10999999999996,378.4" fill="none" stroke="var(--_line)" stroke-width="0.75" marker-end="url(#arrowhead)" />
<polyline points="488.03775761173324,245.3402576117333 488.03775761173324,331.9 302.86499999999995,331.9 302.86499999999995,378.4 212.10999999999996,378.4" fill="none" stroke="var(--_line)" stroke-width="0.75" marker-end="url(#arrowhead)" />
<polyline points="194.87829765083958,247.43170234916036 194.87829765083958,331.9 356.60499999999996,331.9 356.60499999999996,378.4 350.2174999999999,378.4" fill="none" stroke="var(--_line)" stroke-width="0.75" marker-end="url(#arrowhead)" />
<polyline points="383.11945014567937,246.44054985432055 383.11945014567937,331.9 544.6674999999999,331.9 544.6674999999999,378.4 553.8174999999999,378.4" fill="none" stroke="var(--_line)" stroke-width="0.75" marker-end="url(#arrowhead)" />
<polyline points="594.2554382074029,255.2420617925971 594.2554382074029,331.9 693.9175,331.9 693.9175,360.4" fill="none" stroke="var(--_line)" stroke-width="0.75" marker-end="url(#arrowhead)" />
<rect x="85.14999999999996" y="91" width="107.52000000000001" height="27" rx="4" ry="4" fill="var(--bg)" stroke="var(--_inner-stroke)" stroke-width="0.5" />
<text x="138.90999999999997" y="104.5" text-anchor="middle" dy="0.35em" font-size="11" font-weight="400" fill="var(--_text-muted)">Prompt injection</text>
<rect x="278.835" y="91" width="101.8" height="27" rx="4" ry="4" fill="var(--bg)" stroke="var(--_inner-stroke)" stroke-width="0.5" />
<text x="329.73499999999996" y="104.5" text-anchor="middle" dy="0.35em" font-size="11" font-weight="400" fill="var(--_text-muted)">Data extraction</text>
<rect x="506.6375" y="91" width="78.92" height="27" rx="4" ry="4" fill="var(--bg)" stroke="var(--_inner-stroke)" stroke-width="0.5" />
<text x="546.0975" y="104.5" text-anchor="middle" dy="0.35em" font-size="11" font-weight="400" fill="var(--_text-muted)">Tool misuse</text>
<rect x="35.99999999999996" y="318.4" width="44.6" height="27" rx="4" ry="4" fill="var(--bg)" stroke="var(--_inner-stroke)" stroke-width="0.5" />
<text x="58.299999999999955" y="331.9" text-anchor="middle" dy="0.35em" font-size="11" font-weight="400" fill="var(--_text-muted)">Block</text>
<rect x="161.14249999999998" y="318.4" width="38.88" height="27" rx="4" ry="4" fill="var(--bg)" stroke="var(--_inner-stroke)" stroke-width="0.5" />
<text x="180.58249999999998" y="331.9" text-anchor="middle" dy="0.35em" font-size="11" font-weight="400" fill="var(--_text-muted)">Deny</text>
<rect x="280.56499999999994" y="318.4" width="44.6" height="27" rx="4" ry="4" fill="var(--bg)" stroke="var(--_inner-stroke)" stroke-width="0.5" />
<text x="302.86499999999995" y="331.9" text-anchor="middle" dy="0.35em" font-size="11" font-weight="400" fill="var(--_text-muted)">Block</text>
<rect x="337.16499999999996" y="318.4" width="38.88" height="27" rx="4" ry="4" fill="var(--bg)" stroke="var(--_inner-stroke)" stroke-width="0.5" />
<text x="356.60499999999996" y="331.9" text-anchor="middle" dy="0.35em" font-size="11" font-weight="400" fill="var(--_text-muted)">Pass</text>
<rect x="522.3675" y="318.4" width="44.6" height="27" rx="4" ry="4" fill="var(--bg)" stroke="var(--_inner-stroke)" stroke-width="0.5" />
<text x="544.6674999999999" y="331.9" text-anchor="middle" dy="0.35em" font-size="11" font-weight="400" fill="var(--_text-muted)">Allow</text>
<rect x="671.6175000000001" y="318.4" width="44.6" height="27" rx="4" ry="4" fill="var(--bg)" stroke="var(--_inner-stroke)" stroke-width="0.5" />
<text x="693.9175" y="331.9" text-anchor="middle" dy="0.35em" font-size="11" font-weight="400" fill="var(--_text-muted)">Allow</text>
<rect x="285.13499999999993" y="40" width="89.2" height="36" rx="0" ry="0" fill="var(--_node-fill)" stroke="var(--_node-stroke)" stroke-width="0.75" />
<polygon points="138.90999999999997,133 224.10999999999996,218.2 138.90999999999997,303.4 53.709999999999965,218.2" fill="var(--_node-fill)" stroke="var(--_node-stroke)" stroke-width="0.75" />
<polygon points="329.73499999999996,136.575 411.35999999999996,218.2 329.73499999999996,299.825 248.10999999999996,218.2" fill="var(--_node-fill)" stroke="var(--_node-stroke)" stroke-width="0.75" />
<polygon points="546.0975,133 631.2975,218.2 546.0975,303.4 460.8975,218.2" fill="var(--_node-fill)" stroke="var(--_node-stroke)" stroke-width="0.75" />
<rect x="65.70999999999997" y="360.4" width="146.4" height="36" rx="0" ry="0" fill="#ef4444" stroke="var(--_node-stroke)" stroke-width="0.75" />
<rect x="350.2174999999999" y="360.4" width="203.60000000000002" height="36" rx="0" ry="0" fill="#3b82f6" stroke="var(--_node-stroke)" stroke-width="0.75" />
<rect x="577.8175" y="360.4" width="232.20000000000002" height="36" rx="0" ry="0" fill="#10b981" stroke="var(--_node-stroke)" stroke-width="0.75" />
<text x="329.73499999999996" y="58" text-anchor="middle" dy="0.35em" font-size="13" font-weight="500" fill="var(--_text)">Attacker</text>
<text x="138.90999999999997" y="218.2" text-anchor="middle" dy="0.35em" font-size="13" font-weight="500" fill="var(--_text)">Input Validation</text>
<text x="329.73499999999996" y="218.2" text-anchor="middle" dy="0.35em" font-size="13" font-weight="500" fill="var(--_text)">Access Controls</text>
<text x="546.0975" y="218.2" text-anchor="middle" dy="0.35em" font-size="13" font-weight="500" fill="var(--_text)">PreToolUse Hooks</text>
<text x="138.90999999999997" y="378.4" text-anchor="middle" dy="0.35em" font-size="13" font-weight="500" fill="#fff">Blocked + logged</text>
<text x="452.0174999999999" y="378.4" text-anchor="middle" dy="0.35em" font-size="13" font-weight="500" fill="#fff">Claude + sanitized input</text>
<text x="693.9175" y="378.4" text-anchor="middle" dy="0.35em" font-size="13" font-weight="500" fill="#fff">Execute with least privilege</text>
</svg>